# xmcd
#
# Track frame offsets:
#	150
#	16758
#	33469
#	47771
#	63336
#	78734
#	93233
#	109925
#	126381
#	140772
#	153729
#	170252
#	195652
#
# Disc length: 2936 seconds
#
# Revision: 0
# Processed by: cddbd v1.5.2PL0 Copyright (c) Steve Scherf et al.
# Submitted via: EasyCDDAExtractor 9.1.3.1
#
DISCID=b20b760d
DTITLE=Aaron Tippin - He Believed
DYEAR=2008
DGENRE=Country
TTITLE0=He Believed
TTITLE1=I Got It Honest
TTITLE2=Country Boy's Toolbox *
TTITLE3=My Blue Angel
TTITLE4=Working Man's PhD
TTITLE5=Bad Latitude *
TTITLE6=Ready to Rock
TTITLE7=Whole Lot of Love on the Line
TTITLE8=I Wouldn't Have It Any Other Way
TTITLE9=Honky Tonk Superman
TTITLE10=Could Not Stop Myself
TTITLE11=Trim Yourself to Fit the World *
TTITLE12=Data Track
EXTD=
EXTT0=
EXTT1=
EXTT2=
EXTT3=
EXTT4=
EXTT5=
EXTT6=
EXTT7=
EXTT8=
EXTT9=
EXTT10=
EXTT11=
EXTT12=
PLAYORDER=
